<svg width="105" height="252" viewBox="0 0 105 252" fill="none" xmlns="http://www.w3.org/2000/svg">
<g clip-path="url(#clip0_2821_725)">
<mask id="path-1-inside-1_2821_725" fill="white">
<path fill-rule="evenodd" clip-rule="evenodd" d="M11.7702 0.180664L93.2286 0.180664L93.2292 0.180719V3.47457H92.5747V3.47473H92.5754V4.9572H92.5748L105 21.7741V238.952V238.953L93.817 248.434V251.014H11.183V251.014H11.1825V248.434H11.183V248.434L0 238.953L0 238.952L0 21.7741L12.4252 4.9572V3.47473H12.4253V3.47457H11.7708V3.47452H11.7702V0.180664Z"/>
</mask>
<path fill-rule="evenodd" clip-rule="evenodd" d="M11.7702 0.180664L93.2286 0.180664L93.2292 0.180719V3.47457H92.5747V3.47473H92.5754V4.9572H92.5748L105 21.7741V238.952V238.953L93.817 248.434V251.014H11.183V251.014H11.1825V248.434H11.183V248.434L0 238.953L0 238.952L0 21.7741L12.4252 4.9572V3.47473H12.4253V3.47457H11.7708V3.47452H11.7702V0.180664Z" fill="#FEF7E6"/>
<path d="M93.2286 0.180664L93.3639 -1.31321L93.2964 -1.31934H93.2286V0.180664ZM11.7702 0.180664V-1.31934H10.2702V0.180664L11.7702 0.180664ZM93.2292 0.180719L94.7292 0.180719V-1.18949L93.3645 -1.31316L93.2292 0.180719ZM93.2292 3.47457V4.97457H94.7292V3.47457H93.2292ZM92.5747 3.47457V1.97457L91.0747 1.97457V3.47457H92.5747ZM92.5747 3.47473H91.0747V4.97473H92.5747V3.47473ZM92.5754 3.47473H94.0754V1.97473H92.5754V3.47473ZM92.5754 4.9572V6.4572H94.0754V4.9572H92.5754ZM92.5748 4.9572V3.4572H89.6015L91.3684 5.84857L92.5748 4.9572ZM105 21.7741H106.5V21.2801L106.206 20.8827L105 21.7741ZM105 238.953L105.97 240.097L106.5 239.648V238.953H105ZM93.817 248.434L92.847 247.29L92.317 247.739V248.434H93.817ZM93.817 251.014V252.514H95.317V251.014H93.817ZM11.183 251.014H9.68299V252.514H11.183V251.014ZM11.183 251.014H12.683V249.514H11.183V251.014ZM11.1825 251.014H9.68253V252.514H11.1825V251.014ZM11.1825 248.434V246.934H9.68253V248.434H11.1825ZM11.183 248.434V249.934H12.683V248.434H11.183ZM11.183 248.434H12.683V247.739L12.153 247.29L11.183 248.434ZM0 238.953H-1.5V239.648L-0.970016 240.097L0 238.953ZM0 21.7741L-1.20643 20.8827L-1.5 21.2801V21.7741H0ZM12.4252 4.9572L13.6316 5.84857L13.9252 5.45123V4.9572H12.4252ZM12.4252 3.47473V1.97473L10.9252 1.97473V3.47473H12.4252ZM12.4253 3.47473V4.97473H13.9253V3.47473H12.4253ZM12.4253 3.47457H13.9253V1.97457H12.4253V3.47457ZM11.7708 3.47457H10.2708V4.97457H11.7708V3.47457ZM11.7708 3.47452H13.2708V1.97452L11.7708 1.97452V3.47452ZM11.7702 3.47452H10.2702V4.97452H11.7702V3.47452ZM93.2286 -1.31934L11.7702 -1.31934V1.68066L93.2286 1.68066V-1.31934ZM93.3645 -1.31316L93.3639 -1.31321L93.0932 1.67454L93.0938 1.6746L93.3645 -1.31316ZM94.7292 3.47457V0.180719L91.7292 0.180719V3.47457H94.7292ZM92.5747 4.97457H93.2292V1.97457H92.5747V4.97457ZM94.0747 3.47473V3.47457H91.0747V3.47473H94.0747ZM92.5754 1.97473H92.5747V4.97473H92.5754V1.97473ZM94.0754 4.9572V3.47473H91.0754V4.9572H94.0754ZM92.5748 6.4572H92.5754V3.4572H92.5748V6.4572ZM106.206 20.8827L93.7813 4.06583L91.3684 5.84857L103.794 22.6655L106.206 20.8827ZM106.5 238.952V21.7741H103.5V238.952H106.5ZM106.5 238.953V238.952H103.5V238.953H106.5ZM94.787 249.578L105.97 240.097L104.03 237.809L92.847 247.29L94.787 249.578ZM95.317 251.014V248.434H92.317V251.014H95.317ZM11.183 252.514H93.817V249.514H11.183V252.514ZM9.68299 251.014V251.014H12.683V251.014H9.68299ZM11.1825 252.514H11.183V249.514H11.1825V252.514ZM9.68253 248.434V251.014H12.6825V248.434H9.68253ZM11.183 246.934H11.1825V249.934H11.183V246.934ZM9.68299 248.434V248.434H12.683V248.434H9.68299ZM-0.970016 240.097L10.213 249.578L12.153 247.29L0.970016 237.809L-0.970016 240.097ZM-1.5 238.952V238.953H1.5V238.952H-1.5ZM-1.5 21.7741L-1.5 238.952H1.5L1.5 21.7741H-1.5ZM11.2187 4.06583L-1.20643 20.8827L1.20643 22.6655L13.6316 5.84857L11.2187 4.06583ZM10.9252 3.47473V4.9572H13.9252V3.47473H10.9252ZM12.4253 1.97473H12.4252V4.97473H12.4253V1.97473ZM10.9253 3.47457V3.47473H13.9253V3.47457H10.9253ZM11.7708 4.97457H12.4253V1.97457L11.7708 1.97457V4.97457ZM10.2708 3.47452V3.47457H13.2708V3.47452H10.2708ZM11.7702 4.97452H11.7708V1.97452H11.7702V4.97452ZM10.2702 0.180664V3.47452H13.2702V0.180664L10.2702 0.180664Z" fill="#0E0E0E" mask="url(#path-1-inside-1_2821_725)"/>
<g clip-path="url(#clip1_2821_725)">
<path d="M24.9169 175.926L73.7661 182.084L73.7752 182.012L73.7712 182.085C76.6268 182.403 80.8885 184.895 80.8885 190.3C80.8885 195.705 76.6225 198.192 73.7655 198.51L73.7548 198.511L24.9169 204.669V196.737L37.5839 195.141L38.2402 195.058V194.397V186.198V185.537L37.5839 185.454L24.9169 183.859V175.926ZM52.6252 193.246L52.5785 192.502H53.2587V188.093H52.5785L52.6252 187.349L46.8991 186.626L46.0552 186.52V187.37V193.225L46.0552 194.075L46.8991 193.969L52.6252 193.246ZM80.0777 176.945L31.2455 170.793L31.2455 170.793L31.2348 170.791C28.3779 170.473 24.1062 167.981 24.1062 162.576C24.1062 157.171 28.3721 154.685 31.2292 154.366L31.2292 154.366L31.2398 154.365L52.6024 151.674L53.2587 151.591V150.93V146.515V145.853L52.6024 145.771L31.2455 143.08L31.2455 143.08L31.2347 143.078C28.3699 142.76 24.0835 140.266 24.0835 134.863C24.0835 129.459 28.3652 126.966 31.2235 126.648L31.2235 126.648L31.2341 126.646L37.5612 125.85L38.2175 125.767V125.106V116.902V116.24L37.561 116.157L31.2225 115.361L31.2226 115.361L31.212 115.36C28.3499 115.041 24.0835 112.549 24.0835 107.144C24.0835 101.739 28.3553 99.2479 31.2108 98.9348L31.2108 98.9349L31.2227 98.9334L52.6023 96.2423L53.2587 96.1597V95.4981V91.0832V90.4218L52.6025 90.3391L31.2229 87.6423L31.2229 87.6422L31.2121 87.641C28.3552 87.3225 24.0835 84.8304 24.0835 79.4256C24.0835 74.0215 28.3545 71.5345 31.2121 71.2159L31.2122 71.216L31.2227 71.2147L52.6023 68.5236L53.2587 68.441V67.7795V63.3645V62.7031L52.6025 62.6204L24.9169 59.1302V51.1976L73.7718 57.3553L73.7718 57.3554L73.7825 57.3566C76.6395 57.6751 80.9112 60.1672 80.9112 65.572C80.9112 70.9767 76.6452 73.4631 73.7882 73.7817L73.7882 73.7816L73.7774 73.783L52.4147 76.4797L51.7587 76.5626V77.2238V81.6388V82.3002L52.4149 82.3829L73.7719 85.074L73.7718 85.0741L73.7825 85.0753C76.6395 85.3938 80.9112 87.8859 80.9112 93.2907C80.9112 98.4629 77.0043 100.963 74.1642 101.447L73.7774 101.496L37.3737 106.087L36.7175 106.17V106.831V107.457V108.119L37.3738 108.201L73.7719 112.787L73.7719 112.787L73.7825 112.788C76.6395 113.107 80.9112 115.599 80.9112 121.004C80.9112 126.408 76.6452 128.895 73.7882 129.213L73.7882 129.213L73.7775 129.215L37.3738 133.8L36.7175 133.883V134.544V135.17V135.832L37.3738 135.914L73.7832 140.5L73.7832 140.5L73.7938 140.501C76.6495 140.82 80.9112 143.311 80.9112 148.717C80.9112 154.123 76.6495 156.614 73.7938 156.932L73.7938 156.932L73.7832 156.933L52.4149 159.624L51.7587 159.707V160.369V164.784V165.445L52.4149 165.528L80.0777 169.012V176.945ZM46.8764 117.33L46.0325 117.223V118.074V123.934V124.784L46.8764 124.678L52.6026 123.955L53.2587 123.872V123.211V118.796V118.135L52.6026 118.052L46.8764 117.33Z" fill="#FEF7E6" stroke="#0E0E0E" stroke-width="1.5"/>
</g>
</g>
<defs>
<clipPath id="clip0_2821_725">
<rect width="105" height="250.833" fill="white" transform="translate(0 0.180664)"/>
</clipPath>
<clipPath id="clip1_2821_725">
<rect width="58.3333" height="155.167" fill="white" transform="translate(23.3335 50.3472)"/>
</clipPath>
</defs>
</svg>
