<svg fill="none" height="1169" viewBox="0 0 581 1169" width="581" xmlns="http://www.w3.org/2000/svg" xmlns:xlink="http://www.w3.org/1999/xlink"><linearGradient id="a"><stop offset="0" stop-color="#ffd66f"/><stop offset="1" stop-color="#e94f35"/></linearGradient><linearGradient id="b" gradientUnits="userSpaceOnUse" x1="107.109" x2="105.629" xlink:href="#a" y1="1010.09" y2="1147.11"/><linearGradient id="c" gradientUnits="userSpaceOnUse" x1="344.976" x2="320.364" xlink:href="#a" y1="923.169" y2="1065.12"/><clipPath id="d"><path d="m0 0h581v1169h-581z"/></clipPath><g clip-path="url(#d)"><path d="m450.056 151.399 127.944 3.889-104.106 41.96 69.61 69.61-84.47-32.493 20.659 114.244-73.148-104.511-25.335 117.836-19.437-104.259-115.596 101.279 59.25-125.04-130.427-11.04 110.7-40.509-76.25-61.939 94.861 25.182-52.167-98.2767 98.597 82.7207 32.188-130.052 13.103 126.492 141.543-96.4658z" fill="#ffd66f"/><g fill="#347e39"><path d="m221.997 816.744c13.157-1.37 26.729-2.873 38.262-9.338 18.475-10.353 28.221-31.478 32.943-52.117 2.52-11.026 3.897-22.852-.111-33.428-18.65 9.337-37.304 19.347-52.489 33.647-15.186 14.299-26.759 33.521-27.796 54.356l9.2 6.887z"/><path d="m171.907 796.411c18.855 21.605 60.544 36.062 69.75 43.474 41.888 33.743 44.968 105.079 44.968 105.079l16.335-3.57s-6.01-73.187-47.914-112.054c-10.543-9.777-66.945-29.128-77.228-47.372z"/><path d="m278.347 862.924c18.245-2.393 36.646-7.93 50.758-19.745 14.112-11.814 23.155-30.806 19.478-48.832-17.436 1.506-33.716 9.546-48.098 19.518-4.647 3.218-9.18 6.685-12.893 10.949-7.634 8.749-11.304 20.174-14.789 31.246z"/><path d="m262.024 853.272c1.521 17.076-3.439 34.644-13.659 48.402-10.22 13.759-25.617 23.573-42.406 27.039-.729-16.794 3.019-34 12.116-48.133 9.097-14.132 23.791-24.925 40.351-27.81z"/><path d="m206.802 816.593c5.291 11.289 4.966 24.627 1.217 36.511-3.748 11.884-10.675 22.517-18.295 32.381-3.963-12.13-6.234-25.098-4.14-37.682 2.093-12.592 9.001-24.769 20.062-31.149z"/><path d="m156.153 751.68c10.116 32.99 7.372 68.516-4.747 100.82-10.65 28.386-29.196 53.032-43.112 79.978-13.9174 26.938-23.2076 58.713-14.5568 87.282 4.6877-1.45 9.3738-2.9 14.0618-4.34.102-.37.196-.73 1.597-1.42-7.866-20.936-4.029-44.694 4.607-65.328 8.635-20.635 21.732-39.014 33.142-58.249 13.051-22.009 26.108-45.161 29.403-70.539 3.753-28.847 1.215-46.841-4.484-75.535-5.301 2.443-10.602 4.886-15.903 7.329z"/><path d="m161.068 817.79c-6.651 11.916-18.091 21.063-31.178 24.924-13.087 3.862-27.664 2.404-39.7162-3.99 8.859-10.214 19.5642-19.151 32.1632-24.058 12.599-4.908 27.253-5.446 39.426.45l-.688 2.664z"/><path d="m159.108 860.777c12.971 9.029 22.355 22.795 27.057 37.891 4.701 15.087 4.853 31.425 1.503 46.865-13.463-7.434-24.171-19.743-29.653-34.119-5.482-14.368-5.711-30.685-.621-45.195z"/><path d="m135.4 885.94c-8.854-12.266-21.755-21.557-36.2028-26.067-14.4383-4.502-30.3389-4.204-44.598.855 5.5956 8.362 12.2414 16.018 19.7381 22.739 5.2632 4.716 11.0436 9.031 17.6717 11.456 13.696 5.014 28.884 1.414 42.943-2.445l.446-6.546z"/><path d="m108.432 934.279c-14.5003 13.198-33.819 20.985-53.4206 21.535-19.6015.551-39.3242-6.137-54.55243-18.497 31.35933-23.674 76.44343-27.533 111.37403-9.544l-3.395 6.496z"/><path d="m120.755 932.284c-.842-.396.496-1.418 1.422-1.303 15.162 2.003 29.597 9.146 40.395 19.983 10.798 10.836 17.882 25.297 19.826 40.465-16.147.72-32.49-4.92-44.765-15.432-12.269-10.522-20.34-25.808-22.107-41.872z"/></g><path d="m37.1921 1063.58c-16.8846 5.69-29.02189 23.16-28.47407 40.97s13.74967 34.5 30.94857 39.14c17.1988 4.64 35.3365 4.7 44.7657-10.42-.7463 26.29 38.5647 47.12 58.7477 26.12 11.69-12.16 14.921-31.03 5.59-42.16 12.453 1.8 25.706.62 36.616-5.65 10.91-6.26 18.977-18.23 18.409-30.8-.477-10.48-7-20.3-16.104-25.52-9.104-5.21-20.469-5.95-30.466-2.75 10.006-10.04 14.867-24.96 12.684-38.97-.795-5.09-2.496-10.1-5.55-14.244-7.932-10.749-23.843-13.324-36.304-8.513-12.461 4.812-21.785 15.547-28.3804 27.167-7.6133-14.82-23.9106-25.015-40.5673-24.487-16.658.52-32.6134 12.207-37.3401 28.187-4.7268 15.99 2.7672 34.96 17.5258 42.69" fill="url(#b)"/><path d="m263.319 966.942c-18.484 3.064-34.024 19.148-36.462 37.718-2.429 18.58 8.447 38.12 25.52 45.83 17.073 7.72 35.883 10.83 48.22-3.26-5.206 27.15 32.077 55.41 56.561 37.01 14.182-10.65 20.723-29.68 12.912-42.8 12.623 3.96 26.577 4.98 38.957.31 12.379-4.67 22.768-15.73 24.293-28.87 1.268-10.95-3.838-22.249-12.408-29.191-8.571-6.95-20.239-9.632-31.148-7.992 12.076-8.725 19.635-23.399 19.736-38.296.034-5.409-.886-10.903-3.354-15.714-6.413-12.497-22.497-17.847-36.238-14.956-13.74 2.892-25.225 12.46-34.029 23.402-5.405-16.665-20.597-29.987-37.972-32.249s-35.904 7.177-43.506 22.959c-7.603 15.783-5.091 35.588 8.927 46.106z" fill="url(#c)"/><path d="m333.606 1012.26c13.089-2.15 21.955-14.506 19.803-27.595-2.153-13.09-14.509-21.956-27.599-19.803-13.089 2.153-21.956 14.509-19.803 27.598 2.153 13.09 14.509 21.96 27.599 19.8z" fill="#fff"/><path d="m105.598 1093.95c13.089-2.15 21.955-14.51 19.803-27.6-2.153-13.09-14.509-21.95-27.5988-19.8-13.0895 2.15-21.9555 14.51-19.8028 27.6s14.509 21.95 27.5986 19.8z" fill="#fff"/></g></svg>