<svg fill="none" height="424" viewBox="0 0 489 424" width="489" xmlns="http://www.w3.org/2000/svg" xmlns:xlink="http://www.w3.org/1999/xlink"><clipPath id="a"><path d="m0 0h488.52v423.908h-488.52z"/></clipPath><g clip-path="url(#a)"><path d="m213.357 130.01c-19.855-13.087-35.223-10.095-42.328-3.552-4.674 4.3-6.244 10.283-4.075 15.63.598 1.533 1.346 3.103 2.056 4.636 1.571 3.44 4.001 8.638 2.73 9.797-.524.486-2.356 1.608-8.114 1.907-15.106.748-25.576-6.357-48.534-21.874-5.048-3.403-10.62-7.179-16.9387-11.367-27.7445-18.285-63.4908-18.472-83.084-.449-9.19828 8.488-14.433098 20.603-15.0313628 35.036-.7478302 17.873 7.1417828 32.792 22.2105628 42.065 22.6967 13.91 58.3308 13.237 84.7295-1.645 46.702-27.557 115.053 2.692 94.974 23.706-11.367 11.891-27.931-10.469-56.536-14.919-17.237-.71-31.222 3.365-40.42 11.816-7.1045 6.543-11.068 15.293-11.5166 25.389-.6731 16.228 10.3946 66.295 87.6086 40.009 24.379-9.797 40.644-18.584 75.531 15.068 49.394 48.909 34.138 113.185 32.568 115.765-1.085 1.832-.786 4.113.71 5.608 1.496 1.459 3.814 1.72 5.609.599.635-.412 1.308-.898 1.981-1.533 15.181-13.985 33.578-86.412 21.314-149.604-8.226-66.519-75.98-122.644-105.482-142.05z" fill="#e72f63"/><path d="m394.069 88.1314c-5.833 4.3-11.853 10.0209-17.836 16.9756-45.954 53.395-25.576 165.794-24.678 170.543.411 2.206 2.356 3.776 4.599 3.702.972 0 1.832-.337 2.543-.898.972-.71 1.645-1.795 1.832-3.103 5.16-41.131 22.659-78.597 51.974-111.39l1.645-1.869c1.982-2.281 6.095-5.422 10.47-8.712 11.816-9.012 28.044-21.388 29.651-36.906 1.122-10.881-5.571-27.1835-18.434-34.5496-8.562-4.8983-22.734-7.8148-41.766 6.207z" fill="#e72f63"/><g stroke="#fff"><path d="m427.759 93.7779c-1.009-.7105-2.131-1.3461-3.253-1.907-2.543-1.1965-5.683-2.1313-9.348-2.0939" stroke-miterlimit="10" stroke-width="2.99132"/><path d="m428.919 134.609c5.422-5.684 10.17-12.302 10.357-19.518.113-4.637-1.832-10.47-5.496-15.3683" stroke-miterlimit="10" stroke-width="2.99132"/><path d="m426.713 136.853c.748-.748 1.496-1.496 2.243-2.244" stroke-miterlimit="10" stroke-width="2.99132"/><path d="m36.7559 196.118c4.0756 1.758 8.5252 3.066 13.1618 3.889" stroke-miterlimit="10" stroke-width="2.99132"/><path d="m17.3497 140.143c-2.8417 5.422-4.4496 11.741-4.7487 18.696-.5609 12.975 4.5244 24.005 14.3209 31.596" stroke-miterlimit="10" stroke-width="2.99132"/><path d="m295.655 246.522c-1.758-4.113-3.702-8.151-5.833-12.115" stroke-miterlimit="10" stroke-width="2.99132"/><path d="m305.266 315.21c.934-12.189.86-24.641-.636-36.644-.86-7.067-2.505-14.096-4.786-20.976" stroke-miterlimit="10" stroke-width="2.99132"/></g><path d="m314.613 162.316c.598-.261 1.122-.598 1.608-.972 2.168-1.682 3.29-4.599 2.654-7.403-6.244-27.072 7.292-42.328 11.741-47.301.449-.523.823-.934 1.16-1.308l.71-.898c6.693-7.9267 12.937-16.5268 13.648-25.0146.449-6.1322-3.066-12.1523-9.011-15.3679-8.601-4.5992-19.968-2.5053-30.475 5.6461l-1.308 1.0469c-37.354 30.8855-1.272 86.5245.299 88.8425 1.982 2.991 5.758 4.075 9.011 2.692z" fill="#e72f63"/><path d="m316.856 74.2222c-1.57.7478-3.178 1.72-4.711 2.9165l-.786.6357c-.71.5982-1.383 1.1965-2.019 1.8321" stroke="#fff" stroke-miterlimit="10" stroke-width="2.99132"/><path d="m330.765 93.5159c2.505-3.44 4.45-7.0296 4.749-10.5818.262-3.627-1.795-7.1791-5.347-9.0861-2.019-1.0844-4.3-1.5331-6.73-1.3835" stroke="#fff" stroke-miterlimit="10" stroke-width="2.99132"/><path d="m253.963 373.616c-.449.374-.935.673-1.459.897-2.28 1.085-5.01.673-7.141-.897-44.833-32.83-60.5-2.991-77.214-12.975-4.823-2.879-7.815-7.628-8.899-13.76-3.066-17.724 11.404-21.463 18.621-23.295 48.609-12.376 76.316 39.224 77.587 41.505 1.646 2.841.973 6.394-1.495 8.525z" fill="#e72f63"/><path d="m446.604 191.295c.262.075.524.149.786.149 1.159.113 2.355-.486 2.954-1.57 16.639-29.016 29.801-12.975 36.157-23.22 6.319-10.208-3.552-16.228-8.413-16.153-23.557.336-33.802 34.325-33.54 37.354.149 1.533.636 2.916 2.056 3.44z" fill="#e72f63"/><path d="m377.131 356.079c.598.225 1.234.374 1.87.412 2.804.336 5.758-.935 7.254-3.515 38.139-66.407 81.588-32.269 93.666-57.546 10.731-22.509-7.516-36.755-23.782-36.232-70.669 2.206-84.093 81.027-83.682 88.394.187 3.664 1.309 7.104 4.674 8.45z" fill="#e72f63"/><path d="m466.535 293.636c-2.019 1.383-4.973 2.019-9.684 2.617" stroke="#fff" stroke-miterlimit="10" stroke-width="2.46784"/><path d="m450.755 269.481c1.496-.15 2.992-.225 4.525-.299h.523c5.572 0 11.105 2.804 13.686 6.954 1.832 2.917 2.243 6.32 1.196 10.208" stroke="#fff" stroke-miterlimit="10" stroke-width="2.46784"/><path d="m88.6933 91.1604c-.187.2243-.4113.3739-.6357.5235-1.0095.673-2.393.7478-3.5148.1121-30.0627-17.9853-33.8393 3.4027-44.9072-2.6922-11.0305-6.0948-5.0852-16.6392-.5982-19.0696 21.6496-11.7784 48.4594 14.0218 49.7681 16.9383.673 1.4583.9347 2.9914-.1122 4.1879z" fill="#e72f63"/><path d="m386.666 69.6231c.411.0748.86.1122 1.309.0748 1.907-.1122 3.514-1.3835 4.412-3.1409 24.753-49.5812 40.009-28.5671 53.021-45.3933 2.58-3.3652 3.066-8.114.935-12.30181-3.066-5.98264-10.358-9.310488-19.519-8.8243985l-1.159.0747835c-33.353 2.841755-43 62.443825-43.037 64.388225-.038 2.4678 1.645 4.5617 4.075 5.0852z" fill="#e72f63"/><path d="m433.331 9.01164c-1.982-.56087-4.225-.78522-6.656-.67305l-.822.07478c-3.926.33653-7.366 1.75743-10.433 3.88873" stroke="#fff" stroke-miterlimit="10" stroke-width="2.80436"/><path d="m440.884 14.7326c-.673-1.2713-1.571-2.393-2.73-3.3278" stroke="#fff" stroke-miterlimit="10" stroke-width="2.80436"/></g></svg>