<svg fill="none" height="488" viewBox="0 0 488 488" width="488" xmlns="http://www.w3.org/2000/svg" xmlns:xlink="http://www.w3.org/1999/xlink"><clipPath id="a"><path d="m0 0h488v487.309h-488z"/></clipPath><g clip-path="url(#a)"><path d="m415.986 415.928c95.138-95.138 95.138-249.385.001-344.5226-95.138-95.1372-249.386-95.1372-344.5228 0-95.1372 95.1376-95.1371 249.3846.0001 344.5226 95.1367 95.137 249.3847 95.137 344.5217 0z" fill="#b7d2f0"/><path d="m389.758 48.1866c55.378 41.1169 92.96 105.3924 97.714 179.5824 2.925 45.708-6.989 89.222-26.613 127.088l-1.137-.609c-24.54 1.503-49.69-2.316-71.63-13.448-21.899-11.133-40.304-29.904-48.674-53.022-6.785-18.73-6.866-39.451-14.342-57.937-7.964-19.665-24.378-35.673-44.246-43.189-12.798-4.835-27.14-6.339-38.354-14.18-21.33-14.911-22.63-42.661-22.021-68.704 36.038-104.174208 147.2-61.2695 169.303-55.5814z" fill="#83b6ed"/><path d="m117.419 455.171c33.316 22.997 98.892 33.479 142.162 30.716 28.36-1.828 55.297-8.451 80-19.055 11.092-50.177-12.839-106.287-56.922-132.777-11.701-7.029-24.947-12.433-33.601-22.956-18.486-22.468-9.507-59.481-28.968-81.055-10.076-11.133-26.247-15.561-41.117-13.571-14.505 1.991-27.75 9.508-38.72 19.178-9.345 8.247-27.506 6.419-37.136-1.463-6.6221-5.404-8.8974-14.302-11.8227-22.306-5.81-15.764-15.8048-30.309-29.8626-39.491-14.0578-9.183-33.1942-12.352-48.9178-6.461 0 0-66.1041 171.091 104.8641 289.241z" fill="#83b6ed"/><g stroke="#231f20" stroke-linecap="round" stroke-miterlimit="10" stroke-width="2.03147"><path d="m69.6392 74.7987c21.6961-22.4681 47.6988-40.8326 76.8708-53.6715"/><path d="m389.108 48.3489c22.184 16.4955 41.523 36.6883 57.044 59.7661"/><path d="m219.764 103.971c-.569 26.043.691 53.752 22.062 68.663 11.214 7.842 25.556 9.386 38.354 14.18 19.827 7.476 36.282 23.525 44.245 43.189 7.476 18.446 7.558 39.167 14.343 57.897 8.369 23.118 26.774 41.889 48.674 53.021 7.922 4.023 16.251 7.111 24.865 9.305"/><path d="m211.273 222.568c3.413 2.032 6.501 4.51 9.182 7.476 19.502 21.615 10.523 58.588 28.969 81.056 8.654 10.523 21.899 15.926 33.601 22.955 44.611 26.816 68.582 83.941 56.515 134.565"/><path d="m69.6392 74.7987c21.6961-22.4681 47.6988-40.8326 76.8708-53.6715"/><path d="m478.29 309.353c-27.141 96.413-112.706 169.749-218.343 176.534-43.27 2.763-97.023-7.516-133.468-25.149"/><path d="m389.108 48.3489c29.416 21.8586 53.834 50.2179 70.939 83.1681"/><path d="m69.6392 74.7987c21.6961-22.4681 47.6988-40.8326 76.8708-53.6715"/><path d="m389.108 48.3489c26.734 19.8678 49.324 45.0986 66.104 74.2701"/></g></g></svg>