<svg width="31" height="31" viewBox="0 0 31 31" fill="none" xmlns="http://www.w3.org/2000/svg">
<path d="M15.522 1.5459C11.7379 1.5459 11.263 1.56244 9.7768 1.63008C8.29347 1.698 7.28097 1.93284 6.39503 2.2774C5.47862 2.63328 4.70124 3.10933 3.92678 3.88409C3.15173 4.65855 2.67567 5.43591 2.31862 6.35203C1.97319 7.23824 1.73806 8.25102 1.67129 9.73376C1.60482 11.22 1.5874 11.6952 1.5874 15.4792C1.5874 19.2633 1.60424 19.7367 1.67158 21.223C1.7398 22.7063 1.97464 23.7188 2.31891 24.6047C2.67508 25.5211 3.15114 26.2985 3.9259 27.0729C4.70008 27.848 5.47746 28.3252 6.39329 28.6811C7.27981 29.0256 8.2926 29.2605 9.77564 29.3284C11.2619 29.396 11.7365 29.4126 15.5203 29.4126C19.3047 29.4126 19.7781 29.396 21.2644 29.3284C22.7477 29.2605 23.7614 29.0256 24.6479 28.6811C25.564 28.3252 26.3402 27.848 27.1144 27.0729C27.8895 26.2985 28.3655 25.5211 28.7226 24.605C29.0651 23.7188 29.3002 22.706 29.3699 21.2232C29.4367 19.737 29.4541 19.2633 29.4541 15.4792C29.4541 11.6952 29.4367 11.2203 29.3699 9.73405C29.3002 8.25073 29.0651 7.23824 28.7226 6.35232C28.3655 5.43591 27.8895 4.65855 27.1144 3.88409C26.3394 3.10904 25.5643 2.63299 24.647 2.2774C23.7588 1.93284 22.7457 1.698 21.2623 1.63008C19.7761 1.56244 19.3029 1.5459 15.5177 1.5459H15.522Z" fill="#FEF7E6" stroke="#0E0E0E" stroke-width="1.25"/>
<path d="M15.5206 9.38379C18.8871 9.38379 21.6165 12.1128 21.6165 15.4796C21.6165 18.846 18.8871 21.5755 15.5206 21.5755C12.1538 21.5755 9.4248 18.846 9.4248 15.4796C9.4248 12.1128 12.1538 9.38379 15.5206 9.38379V9.38379Z" stroke="#0E0E0E" stroke-width="1.25"/>
<path d="M23.3584 5.90039C24.3202 5.90039 25.1 6.68011 25.1 7.64206C25.1 8.60389 24.3202 9.38372 23.3584 9.38372C22.3964 9.38372 21.6167 8.60389 21.6167 7.64206C21.6167 6.68011 22.3964 5.90039 23.3584 5.90039V5.90039Z" stroke="#0E0E0E" stroke-width="1.25"/>
</svg>
