<svg width="30" height="29" viewBox="0 0 30 29" fill="none" xmlns="http://www.w3.org/2000/svg">
<path d="M7.27043 9.43628H1.24512V27.5398H7.27043V9.43628Z" fill="#FEF7E6" stroke="#0E0E0E" stroke-width="1.19"/>
<path d="M7.66761 3.83625C7.6285 2.06121 6.35916 0.709229 4.29794 0.709229C2.23672 0.709229 0.88916 2.06121 0.88916 3.83625C0.88916 5.57453 2.19689 6.96543 4.21972 6.96543H4.25823C6.35916 6.96543 7.66761 5.57453 7.66761 3.83625Z" fill="#FEF7E6" stroke="#0E0E0E" stroke-width="1.19"/>
<path d="M29.0004 17.1601C29.0004 11.5995 26.0279 9.01147 22.063 9.01147C18.864 9.01147 17.4317 10.7686 16.632 12.0013V9.43706H10.606C10.6854 11.1358 10.606 27.5406 10.606 27.5406H16.632V17.4301C16.632 16.889 16.6711 16.3493 16.8304 15.9619C17.2659 14.881 18.2574 13.7619 19.922 13.7619C22.1032 13.7619 22.9751 15.422 22.9751 17.8547V27.5401H29.0002L29.0004 17.1601Z" fill="#FEF7E6" stroke="#0E0E0E" stroke-width="1.19"/>
</svg>
