<svg fill="none" height="251" viewBox="0 0 185 251" width="185" xmlns="http://www.w3.org/2000/svg" xmlns:xlink="http://www.w3.org/1999/xlink"><clipPath id="a"><path d="m0 0h185v250.496h-185z"/></clipPath><g clip-path="url(#a)"><path d="m89.9609 31.1154s32.3251-33.53373 65.6971 5.8443c0 0-18.46 25.9161-52.114 14.7113l-13.5831-20.5959z" fill="#7cacdc"/><path d="m104.027 38.3301s19.992-15.8399 43.369-2.378" stroke="#231f20" stroke-miterlimit="10" stroke-width="3.70806"/><path d="m137.803 64.7298c18.5 20.5556 17.895 61.6262 42.763 122.4062 9.472 23.095 2.66 38.25-9.592 49.293-2.983 2.701-6.248 4.837-9.593 6.53-.242.161-.484.282-.766.403-50.421 27.488-119.1414-32.446-127.5652-40.104-.524-.524-.8464-.766-.8464-.766-2.9423-2.539-5.8039-5.28-8.5044-8.262-34.098-37.806-30.9945-96.0873 6.8116-130.145 7.4564-6.6907 15.6786-11.9706 24.3845-15.7593 4.9172-2.2168 9.9957-3.9499 15.1144-5.2396.6852-.1613 1.451-.3225 2.1765-.4434 23.4172-4.4739 48.487 3.0632 65.617 22.0871z" fill="#ffd372"/><path d="m18.9431 140.1c1.5316 14.994 7.658 29.665 18.5 41.716 1.975 2.257 4.2723 4.393 6.61 6.449.2016.161.7255.604 1.5316 1.37" stroke="#fff" stroke-miterlimit="10" stroke-width="3.70806"/><path d="m22.4092 109.065c-1.8944 5.603-3.0632 11.407-3.5872 17.251" stroke="#fff" stroke-miterlimit="10" stroke-width="3.70806"/><path d="m25.7546 24.707s18.4597 14.8725 24.0621 30.5915l-8.7865 5.3605s-8.7059-18.4194-21.1198-27.9716z" fill="#231f20"/><path d="m40.4258 61.3845s-19.1851-64.24616 70.0502-61.3038959c0 0 1.693 46.1088959-32.6874 53.7668959l-37.4031 7.4967z" fill="#7cacdc"/><path d="m104.793 8.58496s-43.2065 13.82464-55.0562 43.36824" stroke="#231f20" stroke-miterlimit="10" stroke-width="3.70806"/><path d="m155.618 107.292c-11.245-1.975-30.027-5.24-36.395-17.1297-1.935-3.5871-2.338-7.7386-1.169-11.6481 1.169-3.9096 3.829-7.134 7.416-9.0687 2.217-1.2091 4.716-1.8137 7.255-1.8137 1.774 0 3.547.3224 5.199.8867.645-2.5795 1.975-4.9978 3.829-6.9728 2.943-3.1034 7.054-4.7962 11.608-4.7962.968 0 1.975.0806 2.983.2418 1.572.2418 3.103.8464 4.393 1.7331 15.155 10.5196 4.675 34.2996-.363 45.7466l-1.491 3.385z" fill="#e72f63"/><path d="m153.321 59.6514c.806 0 1.652.0806 2.539.2015 1.128.1612 2.257.6046 3.184 1.2495 13.744 9.512 2.861 32.5664-1.935 43.4886-10.036-1.773-29.463-4.8361-35.388-15.8394-3.224-6.0054-.967-13.5425 5.079-16.8072 1.854-1.0076 3.869-1.4913 5.884-1.4913 2.58 0 5.159.8061 7.296 2.3377.12.0806.362.2419.362.2419s0-.2419 0-.3225c-.282-6.5697 4.756-13.0588 12.979-13.0588zm0-5.8039c-5.321 0-10.198 2.0152-13.704 5.683-1.532 1.6122-2.741 3.4662-3.628 5.4815-1.088-.2016-2.216-.3225-3.345-.3225-2.983 0-5.965.7658-8.625 2.1765-4.273 2.2974-7.416 6.1264-8.827 10.8017-1.411 4.6754-.927 9.5926 1.37 13.865 7.054 13.0993 26.723 16.5653 38.451 18.6213l1.008.161 4.474.806 1.814-4.192.564-1.29c5.36-12.1314 16.485-37.4026-.645-49.2926-1.653-1.1286-3.587-1.9347-5.602-2.2168-1.169-.1612-2.298-.2821-3.426-.2821z" fill="#e72f63"/><path d="m128.332 72.9924c3.99-2.1362 8.665-1.6929 12.172.7657.121.0807.363.2016.363.2016s0-.2015 0-.3225c-.242-5.2799 3.264-10.5196 9.189-11.769 4.635-.9673 9.593 1.2091 12.011 5.2396 5.481 9.109-.443 23.8606-4.474 33.0902-.766 1.693-2.539 2.66-4.393 2.338-9.714-1.733-24.667-4.9576-29.584-14.0665-2.983-5.5621-.887-12.5349 4.675-15.5174z" fill="#231f20"/><path d="m98.103 138.125c-11.2451-1.975-30.0273-5.239-36.3954-17.129-1.9347-3.587-2.3377-7.739-1.1689-11.648 1.1689-3.91 3.829-7.134 7.4161-9.069 2.2168-1.2092 4.7157-1.8138 7.2549-1.8138 1.7734 0 3.5469.3224 5.1994.8867.6449-2.5795 1.9749-4.9978 3.829-6.9728 2.9422-3.1035 7.0533-4.7963 11.6078-4.7963.9673 0 1.9749.0806 2.9826.2419 1.5715.2418 3.1035.8464 4.3935 1.7331 15.154 10.5192 4.675 34.2992-.363 45.7062l-1.491 3.385-3.265-.564z" fill="#e72f63"/><path d="m95.8051 90.525c.8061 0 1.6526.0807 2.5393.2016 1.1285.1612 2.2566.6045 3.1836 1.2494 13.744 9.512 2.862 32.566-1.9342 43.489-10.0359-1.773-29.4629-4.836-35.3878-15.84-3.2244-6.005-.9673-13.542 5.0785-16.807 1.854-1.008 3.8692-1.491 5.8845-1.491 2.5795 0 5.159.806 7.2952 2.337.1209.081.3627.242.3627.242s0-.242 0-.322c-.2821-6.5698 4.756-13.059 12.9782-13.059zm0-5.8039c-5.3202 0-10.1971 2.0153-13.7037 5.683-1.5315 1.6122-2.7407 3.4663-3.6274 5.4815-1.0882-.2015-2.2168-.3224-3.3453-.3224-2.9826 0-5.9652.7658-8.6253 2.1764-4.2723 2.2974-7.4161 6.1264-8.8268 10.8014-1.4107 4.676-.927 9.593 1.3704 13.865 7.0534 13.099 26.7222 16.566 38.451 18.621l1.0076.161 4.4734.807 1.814-4.192.564-1.29c5.361-12.132 16.485-37.403-.644-49.293-1.653-1.1285-3.588-1.9346-5.6028-2.2167-1.1689-.1613-2.2974-.2822-3.426-.2822z" fill="#e72f63"/><path d="m70.8163 103.866c3.9902-2.136 8.6656-1.693 12.1721.766.121.08.3628.201.3628.201s0-.201 0-.322c-.2418-5.2801 3.2647-10.5197 9.1895-11.7692 4.6351-.9673 9.5923 1.2092 12.0113 5.2397 5.481 9.1085-.444 23.8605-4.474 33.0905-.766 1.693-2.5394 2.66-4.3935 2.338-9.7135-1.734-24.6666-4.958-29.5839-14.067-2.9825-5.562-.8867-12.535 4.6754-15.517z" fill="#231f20"/><path d="m122.502 90.1821-15.554 8.3504 3.832 7.1375 15.554-8.3502z" fill="#e72f63"/><g stroke="#fff" stroke-miterlimit="10" stroke-width="3.70806"><path d="m89.7996 120.633 8.8268 2.66"/><path d="m83.0288 118.618 6.7713 2.015"/><path d="m72.5491 115.433 10.4793 3.185"/><path d="m83.3101 109.307 15.8801 4.796"/><path d="m146.146 89.4368 8.827 2.6601"/><path d="m139.415 87.3812 6.731 2.0555"/><path d="m128.936 84.2374 10.479 3.1438"/><path d="m139.656 78.0707 15.881 4.7963"/></g><path d="m114.708 125.147c3.91 6.812 12.535 9.351 19.508 5.602 6.972-3.748 9.673-12.333 6.126-19.346z" fill="#231f20"/></g></svg>