<svg fill="none" height="120" viewBox="0 0 240 120" width="240" xmlns="http://www.w3.org/2000/svg"><path d="m189.64 58.7435c4.879-2.9321 10.44-4.5373 16.129-4.6615v.0058h.75c8.682 0 17.008 3.4334 23.146 9.544 6.137 6.1104 9.585 14.3971 9.585 23.0371s-3.448 16.9271-9.585 23.0371c-6.138 6.111-14.464 9.544-23.146 9.544-.873 0-1.754-.035-2.644-.106l-.029-.003h-.03-170.4838c-4.8748-.006-9.6861-1.1-14.0803-3.201-4.3941-2.1-8.2594-5.154-11.31184-8.937s-5.21456-8.1977-6.32771-12.921c-1.113146-4.7233-1.149086-9.6348-.10518-14.3738 1.0439-4.7389 3.14118-9.185 6.13792-13.0115 2.99681-3.8265 6.81691-6.9362 11.17981-9.1003 4.363-2.1642 9.1577-3.3277 14.0319-3.405 4.8742-.0772 9.7038.9337 14.1338 2.9585l1.4963.6839-.4651-1.578c-2.5429-8.6275-1.7655-17.8886 2.1805-25.9765 3.9461-8.088 10.7782-14.423 19.164-17.7678 8.3858-3.3449 17.7228-3.45921 26.1887-.3206 8.466 3.1385 15.452 9.3044 19.597 17.2934l.882 1.7006.507-1.8476c1.444-5.2649 3.988-10.1675 7.465-14.3878 3.476-4.2202 7.808-7.66318 12.713-10.10379s10.272-3.82395 15.75-4.059543c5.478-.235594 10.945.681853 16.043 2.692363 5.098 2.0105 9.712 5.06877 13.542 8.97487 3.829 3.9062 6.788 8.5723 8.683 13.6937 1.894 5.1213 2.683 10.5829 2.313 16.028-.369 5.4451-1.888 10.7516-4.458 15.5728l-1.275 2.3918z" fill="#fef7e6" stroke="#0e0e0e" stroke-width="1.5"/><g fill="#0e0e0e" opacity=".25"><circle cx="17.5" cy="108.541" r="1.5"/><circle cx="22.5" cy="114.541" r="1.5"/><circle cx="27.5" cy="108.541" r="1.5"/><circle cx="32.5" cy="114.541" r="1.5"/><circle cx="37.5" cy="108.541" r="1.5"/><circle cx="42.5" cy="114.541" r="1.5"/><circle cx="47.5" cy="108.541" r="1.5"/><circle cx="52.5" cy="114.541" r="1.5"/><circle cx="57.5" cy="108.541" r="1.5"/><circle cx="62.5" cy="114.541" r="1.5"/><circle cx="67.5" cy="108.541" r="1.5"/><circle cx="72.5" cy="114.541" r="1.5"/><circle cx="77.5" cy="108.541" r="1.5"/><circle cx="82.5" cy="114.541" r="1.5"/><circle cx="87.5" cy="108.541" r="1.5"/><circle cx="92.5" cy="114.541" r="1.5"/><circle cx="97.5" cy="108.541" r="1.5"/><circle cx="102.5" cy="114.541" r="1.5"/><circle cx="107.5" cy="108.541" r="1.5"/><circle cx="112.5" cy="114.541" r="1.5"/><circle cx="117.5" cy="108.541" r="1.5"/><circle cx="122.5" cy="114.541" r="1.5"/><circle cx="127.5" cy="108.541" r="1.5"/><circle cx="132.5" cy="114.541" r="1.5"/><circle cx="137.5" cy="108.541" r="1.5"/><circle cx="142.5" cy="114.541" r="1.5"/><circle cx="147.5" cy="108.541" r="1.5"/><circle cx="152.5" cy="114.541" r="1.5"/><circle cx="157.5" cy="108.541" r="1.5"/><circle cx="162.5" cy="114.541" r="1.5"/><circle cx="167.5" cy="108.541" r="1.5"/><circle cx="172.5" cy="114.541" r="1.5"/><circle cx="177.5" cy="108.541" r="1.5"/><circle cx="182.5" cy="114.541" r="1.5"/><circle cx="187.5" cy="108.541" r="1.5"/><circle cx="192.5" cy="114.541" r="1.5"/><circle cx="197.5" cy="108.541" r="1.5"/><circle cx="202.5" cy="114.541" r="1.5"/><circle cx="207.5" cy="108.541" r="1.5"/><circle cx="212.5" cy="114.541" r="1.5"/><circle cx="217.5" cy="108.541" r="1.5"/><circle cx="227.5" cy="108.541" r="1.5"/><circle cx="12.5" cy="102.541" r="1.5"/><circle cx="7.5" cy="96.541" r="1.5"/><circle cx="22.5" cy="102.541" r="1.5"/><circle cx="182.5" cy="102.541" r="1.5"/><circle cx="192.5" cy="102.541" r="1.5"/><circle cx="202.5" cy="90.541" r="1.5"/><circle cx="197.5" cy="96.541" r="1.5"/><circle cx="207.5" cy="84.541" r="1.5"/><circle cx="202.5" cy="102.541" r="1.5"/><circle cx="212.5" cy="90.541" r="1.5"/><circle cx="222.5" cy="76.541" r="1.5"/><circle cx="207.5" cy="96.541" r="1.5"/><circle cx="217.5" cy="84.541" r="1.5"/><circle cx="212.5" cy="102.541" r="1.5"/><circle cx="222.5" cy="90.541" r="1.5"/><circle cx="232.5" cy="76.541" r="1.5"/><circle cx="232.5" cy="90.541" r="1.5"/><circle cx="217.5" cy="96.541" r="1.5"/><circle cx="227.5" cy="84.541" r="1.5"/><circle cx="227.5" cy="69.541" r="1.5"/><circle cx="222.5" cy="102.541" r="1.5"/><circle cx="232.5" cy="102.541" r="1.5"/><circle cx="227.5" cy="96.541" r="1.5"/><circle cx="237.5" cy="84.541" r="1.5"/></g></svg>