<svg fill="none" height="366" viewBox="0 0 338 366" width="338" xmlns="http://www.w3.org/2000/svg" xmlns:xlink="http://www.w3.org/1999/xlink"><clipPath id="a"><path d="m35 0h267.99v365.94h-267.99z"/></clipPath><g clip-path="url(#a)"><g stroke="#0c0d0d" stroke-linecap="round" stroke-linejoin="round" stroke-width="1.46"><path d="m100.43 182.13h-15.28c-1.15 0-2.17-.74-2.52-1.83l-46.4-142.87c-1.73-5.34 1.2-11.09 6.53-12.82 5.34-1.73 11.09 1.2 12.82 6.53l47.38 147.52c.26.81.12 1.69-.38 2.38s-1.3 1.09-2.14 1.09z" fill="#0c0d0d"/><path d="m203.91 365.21h-119.76c-3.27 0-5.98-2.55-6.18-5.82l-9.92-164.73h151.97l-9.92 164.73c-.2 3.26-2.91 5.82-6.18 5.82z" fill="#fff8e7"/><path d="m225.46 208.81h-162.86c-2.94 0-5.33-2.39-5.33-5.33v-18.17c0-2.94 2.39-5.33 5.33-5.33h162.87c2.94 0 5.34 2.39 5.34 5.33v18.17c0 2.94-2.39 5.33-5.34 5.33z" fill="#fff8e7"/><path d="m228 275.53c-3.36 0-6.53-1.3-8.93-3.66l-76.9-75.6c-1.05-1.03-1.06-2.71-.03-3.75s2.71-1.06 3.75-.03l76.9 75.6c1.4 1.38 3.25 2.13 5.21 2.13h.08c1.99-.02 3.85-.81 5.25-2.24.85-.87 1.31-2.01 1.29-3.22s-.5-2.34-1.37-3.19l-19.98-19.38c-1.05-1.02-1.08-2.7-.06-3.75s2.7-1.08 3.75-.06l19.98 19.38c1.89 1.84 2.95 4.3 2.99 6.93.03 2.63-.96 5.12-2.8 7.01-2.39 2.44-5.58 3.8-8.99 3.83-.04 0-.09 0-.13 0z" fill="#0c0d0d"/><path d="m209.67 184.74-20.17-.15 45.7-126.61 17.48 6.27-43 120.49z" fill="#fff8e7"/><path d="m279.89 79.4902c-.3 0-.61-.05-.9-.16l-73.71-26.46c-1.38-.5-2.1-2.02-1.6-3.4l4.78-13.33c.24-.66.73-1.2 1.37-1.5s1.37-.34 2.03-.1l73.71 26.46c1.38.5 2.1 2.02 1.6 3.4l-4.78 13.33c-.24.66-.73 1.2-1.37 1.5-.36.17-.74.25-1.13.25z" fill="#fff8e7"/><path d="m283.49 59.9801c-.3 0-.6-.05-.9-.16l-67.46-24.21c-1.17-.42-1.89-1.59-1.74-2.82l3.62-29.73004c.1-.8.55-1.52 1.24-1.94.69-.420002 1.53-.510002 2.29-.240002l79.95 28.700042c.76.27 1.35.88 1.62 1.64.26.76.16 1.61-.27 2.29l-16.11 25.24c-.5.78-1.35 1.23-2.24 1.23z" fill="#fff8e7"/></g><path d="m225.23 26.2999 2.9-22.62998z" fill="#fff8e7"/><path d="m225.23 26.2999 2.9-22.62998" stroke="#0c0d0d" stroke-linecap="round" stroke-linejoin="round" stroke-width="1.46"/><path d="m240.13 31.7599 5.3-21.83998z" fill="#fff8e7"/><path d="m240.13 31.7599 5.3-21.83998" stroke="#0c0d0d" stroke-linecap="round" stroke-linejoin="round" stroke-width="1.46"/><path d="m258.68 38 8.09-20.52z" fill="#fff8e7"/><path d="m258.68 38 8.09-20.52" stroke="#0c0d0d" stroke-linecap="round" stroke-linejoin="round" stroke-width="1.46"/><path d="m279.02 46.56 14.02-19.54z" fill="#fff8e7"/><path d="m279.02 46.56 14.02-19.54" stroke="#0c0d0d" stroke-linecap="round" stroke-linejoin="round" stroke-width="1.46"/></g></svg>