<svg fill="none" height="366" viewBox="0 0 338 366" width="338" xmlns="http://www.w3.org/2000/svg" xmlns:xlink="http://www.w3.org/1999/xlink"><clipPath id="a"><path d="m0 106h337.93v259.54h-337.93z"/></clipPath><g clip-path="url(#a)"><path d="m144.07 350.18c-67.12 0-121.72-54.61-121.72-121.72s54.6-121.73 121.72-121.73 121.72 54.61 121.72 121.72-54.6 121.72-121.72 121.72z" fill="#fff8e7" stroke="#0c0d0d" stroke-linecap="round" stroke-linejoin="round" stroke-width="1.46"/><path d="m144.07 323.74c-52.54 0-95.28-42.74-95.28-95.29s42.74-95.28 95.28-95.28 95.28 42.74 95.28 95.28-42.74 95.29-95.28 95.29z" fill="#fff8e7" stroke="#0c0d0d" stroke-linecap="round" stroke-linejoin="round" stroke-width="1.46"/><path d="m57.83 353.94c-2.93 0-5.85-.73-8.48-2.16l-39.38-21.46c-4.45-2.42-7.65-6.65-8.79-11.58-1.1400016-4.94-.1-10.13 2.84-14.26l17.25-24.17c10.09-14.14 18.46-29.5 24.88-45.65l10.97-27.59c1.87-4.71 5.68-8.39 10.44-10.12 4.76-1.72 10.05-1.32 14.5 1.11l39.38 21.46c4.45 2.42 7.65 6.65 8.79 11.58 1.14 4.94.1 10.13-2.84 14.26l-17.24 24.17c-10.09 14.14-18.46 29.5-24.88 45.65l-10.97 27.59c-1.87 4.71-5.68 8.39-10.44 10.12-1.95.7-3.99 1.05-6.02 1.05z" fill="#fff8e7" stroke="#0c0d0d" stroke-linecap="round" stroke-linejoin="round" stroke-width="1.46"/><g fill="#0c0d0d"><path d="m250.29 364.81c-47.92 0-86.9-38.98-86.9-86.9v-17.67c0-1.25 1.01-2.26 2.26-2.26h169.29c1.25 0 2.26 1.01 2.26 2.26v17.67c0 47.92-38.98 86.9-86.9 86.9z" stroke="#0c0d0d" stroke-linecap="round" stroke-linejoin="round" stroke-width="1.46"/><path d="m81.99 227.36c-2.68 4.92-8.85 6.74-13.77 4.05-4.92-2.68-6.74-8.85-4.05-13.77 2.68-4.92 8.85-6.74 13.77-4.05 4.92 2.68 6.74 8.85 4.05 13.77z" opacity=".25"/><path d="m75.53 303.13c-2.29 4.2-7.55 5.75-11.75 3.46s-5.75-7.55-3.46-11.75 7.55-5.75 11.75-3.46 5.75 7.55 3.46 11.75z" opacity=".25"/><path d="m40.63 315.51c-3.46 6.35-11.41 8.69-17.75 5.23-6.35-3.46-8.69-11.41-5.23-17.75 3.46-6.35 11.41-8.69 17.75-5.23 6.35 3.46 8.69 11.41 5.23 17.75z" opacity=".25"/><path d="m60.82 264.8c-1.73 3.17-5.7 4.34-8.88 2.61-3.17-1.73-4.34-5.7-2.61-8.88 1.73-3.17 5.7-4.34 8.88-2.61 3.17 1.73 4.34 5.7 2.61 8.88z" opacity=".25"/><path d="m104.36 254.59c-2.01 3.68-6.62 5.04-10.3 3.03s-5.04-6.62-3.03-10.3 6.62-5.04 10.3-3.03 5.04 6.62 3.03 10.3z" opacity=".25"/></g></g></svg>