<svg fill="none" height="366" viewBox="0 0 338 366" width="338" xmlns="http://www.w3.org/2000/svg" xmlns:xlink="http://www.w3.org/1999/xlink"><clipPath id="a"><path d="m0 0h338v366h-338z"/></clipPath><clipPath id="b"><path d="m24 73h290.21v293.01h-290.21z"/></clipPath><g clip-path="url(#a)"><g clip-path="url(#b)"><path d="m110.3 236.02h-9.9c-3.03 0-5.5-2.47-5.5-5.5v-33.9c0-3.03 2.47-5.5 5.5-5.5h9.9z" fill="#0c0d0d" stroke="#fff8e7" stroke-linecap="round" stroke-linejoin="round" stroke-width="1.46"/><path d="m298.4 340.14h-258.59c-8.31 0-15.08-6.76-15.08-15.08s6.76-15.08 15.08-15.08h258.59c8.31 0 15.08 6.76 15.08 15.08s-6.76 15.08-15.08 15.08z" fill="#fff8e7" stroke="#0c0d0d" stroke-linecap="round" stroke-linejoin="round" stroke-width="1.46"/><path d="m298.4 365.27h-258.59c-8.31 0-15.08-6.76-15.08-15.08s6.76-15.08 15.08-15.08h258.59c8.31 0 15.08 6.76 15.08 15.08s-6.76 15.08-15.08 15.08z" fill="#fff8e7" stroke="#0c0d0d" stroke-linecap="round" stroke-linejoin="round" stroke-width="1.46"/><path d="m24.73 350.2h161.07z" fill="#fff8e7"/><path d="m24.73 350.2h161.07" stroke="#0c0d0d" stroke-linecap="round" stroke-linejoin="round" stroke-width="1.46"/><path d="m152.41 325.06h161.07z" fill="#fff8e7"/><path d="m152.41 325.06h161.07" stroke="#0c0d0d" stroke-linecap="round" stroke-linejoin="round" stroke-width="1.46"/><g fill="#0c0d0d"><path d="m162.19 120.06c-3.9 0-6.77-2.08-8.02-5.89-.43-1.32.29-2.74 1.6-3.17 1.32-.43 2.74.29 3.17 1.61.47 1.43 1.35 2.82 4.38 2.34 1.09-.17 2.17-.71 3.22-1.59 5.47-4.61 12.02-1.42 12.29-1.28 1.24.62 1.74 2.13 1.12 3.37s-2.12 1.74-3.36 1.13c-.18-.09-3.91-1.83-6.82.62-1.76 1.48-3.66 2.39-5.67 2.71-.67.11-1.31.16-1.93.16z"/><path d="m162.19 160.29c-3.9 0-6.77-2.08-8.02-5.89-.43-1.32.29-2.74 1.6-3.17 1.32-.43 2.74.29 3.17 1.61.47 1.43 1.35 2.82 4.38 2.34 1.09-.17 2.17-.71 3.22-1.59 5.47-4.61 12.02-1.42 12.29-1.28 1.24.62 1.74 2.13 1.12 3.37s-2.12 1.74-3.36 1.13c-.18-.09-3.91-1.83-6.82.62-1.75 1.48-3.66 2.39-5.67 2.71-.67.11-1.31.16-1.93.16z"/><path d="m162.2 200.51c-3.9 0-6.77-2.08-8.02-5.89-.43-1.32.29-2.74 1.6-3.17 1.32-.43 2.74.29 3.17 1.61.47 1.43 1.35 2.82 4.38 2.34 1.09-.17 2.17-.71 3.22-1.59 5.47-4.6 12.02-1.42 12.29-1.28 1.24.62 1.74 2.13 1.12 3.37s-2.12 1.74-3.36 1.13c-.18-.09-3.91-1.83-6.82.62-1.75 1.48-3.66 2.39-5.67 2.71-.67.11-1.31.16-1.93.16z"/><path d="m162.2 240.73c-3.9 0-6.77-2.08-8.02-5.89-.43-1.32.29-2.74 1.6-3.17 1.32-.43 2.74.29 3.17 1.61.47 1.42 1.35 2.82 4.38 2.34 1.09-.17 2.17-.71 3.22-1.59 5.47-4.6 12.02-1.42 12.29-1.28 1.24.62 1.74 2.13 1.12 3.37s-2.12 1.74-3.36 1.13c-.19-.09-3.92-1.82-6.82.62-1.76 1.48-3.66 2.39-5.67 2.71-.67.11-1.31.16-1.93.16z"/><path d="m162.2 280.96c-3.9 0-6.77-2.08-8.02-5.89-.43-1.32.29-2.74 1.6-3.17 1.32-.43 2.74.29 3.17 1.61.47 1.42 1.35 2.82 4.38 2.34 1.09-.17 2.17-.71 3.22-1.59 5.47-4.6 12.02-1.42 12.29-1.28 1.24.62 1.74 2.13 1.12 3.37s-2.12 1.74-3.36 1.13c-.19-.09-3.92-1.82-6.82.62-1.75 1.48-3.66 2.39-5.67 2.71-.67.11-1.31.16-1.93.16z"/></g><path d="m145.72 74.5401c-2.02-1.13-4.4-1.07-6.37.14l-22.61 13.99c-24.87 15.3799-45.54 37.0099-59.77 62.5599-14.24 25.54-21.76 54.5-21.76 83.74v62.58c0 8.81 7.16 15.97 15.97 15.97h97.77v-233.4899c0-2.31-1.21-4.36-3.23-5.49zm-35.42 217.3999h-47.44c-3.64 0-6.6-2.96-6.6-6.6v-48.43c0-20.82 8.61-41.03 23.61-55.46l19.96-19.19c1.82-1.75 4.39-2.22 6.71-1.23s3.76 3.17 3.76 5.69v125.23z" fill="#fff8e7" stroke="#0c0d0d" stroke-linecap="round" stroke-linejoin="round" stroke-width="1.46"/><path d="m148.94 313.52h-19.48v-232.7198l9.89-6.12c1.97-1.22 4.35-1.27 6.37-.14s3.23 3.18 3.23 5.49v233.4898z" fill="#fff8e7" stroke="#0c0d0d" stroke-linecap="round" stroke-linejoin="round" stroke-width="1.46"/></g></g></svg>