<svg fill="none" height="366" viewBox="0 0 338 366" width="338" xmlns="http://www.w3.org/2000/svg" xmlns:xlink="http://www.w3.org/1999/xlink"><clipPath id="a"><path d="m0 0h338v366h-338z"/></clipPath><clipPath id="b"><path d="m66 47h206.43v319.31h-206.43z"/></clipPath><g clip-path="url(#a)"><g clip-path="url(#b)"><path d="m154.41 297.41h-32.38v-235.27c0-7.95 6.47-14.41 14.41-14.41h3.55c7.95 0 14.41 6.47 14.41 14.41v235.26z" fill="#fff8e7" stroke="#0c0d0d" stroke-linecap="round" stroke-linejoin="round" stroke-width="1.46"/><path d="m203.75 349.05h-131.07v-12.93c0-31.53 25.65-57.17 57.17-57.17h16.73c31.53 0 57.17 25.65 57.17 57.17z" fill="#fff8e7" stroke="#0c0d0d" stroke-linecap="round" stroke-linejoin="round" stroke-width="1.46"/><path d="m200.21 366.31h-123.99c-5.64 0-10.22-4.59-10.22-10.22v-2.26c0-5.64 4.59-10.22 10.22-10.22h123.99c5.64 0 10.22 4.59 10.22 10.22v2.26c0 5.64-4.59 10.22-10.22 10.22z" fill="#0c0d0d"/><path d="m257.37 354.96c-7.81 0-14.17-6.27-14.33-14.04l-13.94-71.88c-.41-2.11-.62-4.27-.62-6.42v-159.74h17.19c6.33 0 11.47 5.15 11.47 11.47v149.05c0 1.71.17 3.43.5 5.12l14.06 71.82v.28c0 7.9-6.43 14.33-14.33 14.33z" fill="#0c0d0d" stroke="#0c0d0d" stroke-linecap="round" stroke-linejoin="round" stroke-width="1.46"/><path d="m228.47 218.9h-44c-1.83 0-3.32-1.49-3.32-3.32v-109.38c0-1.83 1.49-3.32 3.32-3.32h44z" fill="#fff8e7" stroke="#0c0d0d" stroke-linecap="round" stroke-linejoin="round" stroke-width="1.46"/><path d="m216.81 119.87h-35.65z" fill="#fff8e7"/><path d="m216.81 119.87h-35.65" stroke="#0c0d0d" stroke-linecap="round" stroke-linejoin="round" stroke-width="1.46"/><path d="m216.81 139.76h-35.65z" fill="#fff8e7"/><path d="m216.81 139.76h-35.65" stroke="#0c0d0d" stroke-linecap="round" stroke-linejoin="round" stroke-width="1.46"/><path d="m216.81 159.64h-35.65z" fill="#fff8e7"/><path d="m216.81 159.64h-35.65" stroke="#0c0d0d" stroke-linecap="round" stroke-linejoin="round" stroke-width="1.46"/><path d="m216.81 179.53h-35.65z" fill="#fff8e7"/><path d="m216.81 179.53h-35.65" stroke="#0c0d0d" stroke-linecap="round" stroke-linejoin="round" stroke-width="1.46"/><path d="m216.81 199.42h-35.65z" fill="#fff8e7"/><path d="m216.81 199.42h-35.65" stroke="#0c0d0d" stroke-linecap="round" stroke-linejoin="round" stroke-width="1.46"/></g></g></svg>