<svg fill="none" height="366" viewBox="0 0 338 366" width="338" xmlns="http://www.w3.org/2000/svg" xmlns:xlink="http://www.w3.org/1999/xlink"><clipPath id="a"><path d="m0 0h338v366h-338z"/></clipPath><clipPath id="b"><path d="m14 142h310.4v224.32h-310.4z"/></clipPath><mask id="c" height="225" maskUnits="userSpaceOnUse" width="311" x="14" y="142"><path d="m324.4 142h-310.4v224.32h310.4z" fill="#fff"/></mask><g clip-path="url(#a)"><g clip-path="url(#b)"><g mask="url(#c)" stroke="#0c0d0d" stroke-linecap="round" stroke-linejoin="round" stroke-width="1.46"><path d="m165.63 156.5c0-7.59 6.17-13.77 13.77-13.77h-94.54c-7.59 0-13.77 6.18-13.77 13.77s6.18 13.77 13.77 13.77h94.54c-7.6 0-13.77-6.18-13.77-13.77z" fill="#fff8e7"/><path d="m111.46 156.5c0-7.59 6.18-13.77 13.77-13.77h-24.61c-7.59 0-13.76 6.18-13.76 13.77s6.17 13.77 13.76 13.77h24.61c-7.59 0-13.77-6.18-13.77-13.77z" fill="#fff8e7"/><path d="m262.9 145.46h-83.5c-6.1 0-11.04 4.94-11.04 11.04s4.95 11.04 11.04 11.04h83.5z" fill="#fff8e7"/><path d="m262.9 170.27h-83.5c-7.6 0-13.77-6.18-13.77-13.77s6.17-13.77 13.77-13.77h83.5c1.51 0 2.73 1.22 2.73 2.73s-1.22 2.73-2.73 2.73h-83.5c-4.58 0-8.31 3.73-8.31 8.31s3.73 8.31 8.31 8.31h83.5c1.51 0 2.73 1.22 2.73 2.73s-1.22 2.73-2.73 2.73z" fill="#fff8e7"/><path d="m188.42 265.59c0-10.27 8.35-18.62 18.62-18.62h-173.68c-10.27 0-18.62 8.35-18.62 18.62s8.35 18.62 18.62 18.62h173.69c-10.27 0-18.62-8.35-18.62-18.62z" fill="#0c0d0d"/><path d="m41.89 265.59c0-10.27 8.35-18.62 18.62-18.62h-11.84c-10.27 0-18.62 8.35-18.62 18.62s8.35 18.62 18.62 18.62h11.84c-10.26 0-18.62-8.35-18.62-18.62z" fill="#fff8e7"/><path d="m60.38 265.59c0-10.27 8.35-18.62 18.62-18.62h-11.84c-10.27 0-18.62 8.35-18.62 18.62s8.35 18.62 18.62 18.62h11.84c-10.27 0-18.62-8.35-18.62-18.62z" fill="#fff8e7"/><path d="m319.97 250.66h-112.93c-8.25 0-14.93 6.68-14.93 14.93s6.68 14.93 14.93 14.93h112.93v-29.85z" fill="#fff8e7"/><path d="m319.97 284.2h-112.93c-10.27 0-18.62-8.35-18.62-18.62s8.35-18.62 18.62-18.62h112.93c2.04 0 3.69 1.66 3.69 3.69s-1.65 3.69-3.69 3.69h-112.93c-6.19 0-11.24 5.04-11.24 11.23s5.04 11.23 11.24 11.23h112.93c2.04 0 3.69 1.65 3.69 3.69s-1.65 3.69-3.69 3.69z" fill="#fff8e7"/><path d="m181.52 180.84c0-5.83 4.74-10.57 10.57-10.57h-116.99c-5.83 0-10.57 4.74-10.57 10.57s4.74 10.57 10.57 10.57h116.99c-5.83 0-10.57-4.75-10.57-10.57z" fill="#0c0d0d"/><g fill="#fff8e7"><path d="m81.29 180.84c0-5.83 4.74-10.57 10.57-10.57h-6.63c-5.83 0-10.58 4.74-10.58 10.57s4.75 10.57 10.58 10.57h6.63c-5.83 0-10.57-4.75-10.57-10.57z"/><path d="m271.77 172.36h-79.68c-4.68 0-8.48 3.79-8.48 8.48s3.79 8.47 8.48 8.47h79.68z"/><path d="m271.77 191.41h-79.68c-5.83 0-10.57-4.75-10.57-10.57s4.74-10.57 10.57-10.57h79.68c1.16 0 2.1.94 2.1 2.09s-.94 2.1-2.1 2.1h-79.68c-3.52 0-6.38 2.86-6.38 6.38s2.86 6.38 6.38 6.38h79.68c1.16 0 2.1.94 2.1 2.1s-.94 2.1-2.1 2.1z"/><path d="m174.84 300.21c0-8.82 7.18-16 16-16h-144.03c-8.82 0-16 7.18-16 16s7.18 16 16 16h144.03c-8.82 0-16-7.18-16-16z"/><path d="m57.65 300.21c0-8.82 7.18-16 16-16h-16.34c-8.82 0-16 7.18-16 16s7.18 16 16 16h16.34c-8.82 0-16-7.18-16-16z"/><path d="m144.94 300.21c0-8.82 7.18-16 16-16h-9.8c-8.82 0-15.99 7.18-15.99 16s7.18 16 15.99 16h9.8c-8.82 0-16-7.18-16-16z"/><path d="m295.81 287.38h-104.97c-7.08 0-12.82 5.74-12.82 12.83s5.74 12.83 12.82 12.83h104.97v-25.65z"/><path d="m295.81 316.21h-104.97c-8.82 0-16-7.18-16-16s7.18-16 16-16h104.97c1.75 0 3.17 1.42 3.17 3.18s-1.42 3.17-3.17 3.17h-104.97c-5.32 0-9.65 4.33-9.65 9.65s4.33 9.65 9.65 9.65h104.97c1.75 0 3.17 1.42 3.17 3.17s-1.42 3.17-3.17 3.17z"/><path d="m281.28 318.94h-83.5c-6.1 0-11.04 1.38-11.04 21.96s4.95 21.96 11.04 21.96h83.5z"/><path d="m281.28 365.59h-83.5c-2.83 0-7.12 0-10.03-4.11-2.59-3.65-3.73-10-3.73-20.58s1.15-16.93 3.73-20.58c2.92-4.11 7.2-4.11 10.03-4.11h83.5c1.51 0 2.73 1.22 2.73 2.73s-1.22 2.73-2.73 2.73h-83.5c-3.17 0-4.49.27-5.58 1.81-1.81 2.56-2.73 8.42-2.73 17.42s.92 14.87 2.73 17.42c1.09 1.54 2.41 1.81 5.58 1.81h83.5c1.51 0 2.73 1.22 2.73 2.73s-1.22 2.73-2.73 2.73z"/></g><path d="m187.75 361.48c-2.59-3.65-3.73-10-3.73-20.58s1.15-16.93 3.73-20.58c2.92-4.11 7.2-4.11 10.03-4.11h-143.09c-2.83 0-7.11 0-10.03 4.11-2.59 3.65-3.74 9.99-3.74 20.58s1.15 16.93 3.74 20.58c2.92 4.11 7.2 4.11 10.03 4.11h143.09c-2.83 0-7.12 0-10.03-4.11z" fill="#0c0d0d"/><path d="m80.89 361.48c-2.58-3.65-3.74-10-3.74-20.58s1.15-16.93 3.74-20.58c2.91-4.11 7.2-4.11 10.03-4.11h-16.8c-2.83 0-7.11 0-10.03 4.11-2.59 3.65-3.74 9.99-3.74 20.58s1.15 16.93 3.74 20.58c2.92 4.11 7.2 4.11 10.03 4.11h16.8c-2.83 0-7.12 0-10.03-4.11z" fill="#fff8e7"/><path d="m173.98 361.48c-2.59-3.65-3.74-10-3.74-20.58s1.15-16.93 3.74-20.58c2.91-4.11 7.2-4.11 10.03-4.11h-8.4c-2.83 0-7.11 0-10.03 4.11-2.58 3.65-3.74 9.99-3.74 20.58s1.16 16.93 3.74 20.58c2.92 4.11 7.2 4.11 10.03 4.11h8.4c-2.84 0-7.12 0-10.03-4.11z" fill="#fff8e7"/><path d="m278.63 194.14h-83.5c-6.1 0-21.06 4.83-21.06 25.04s14.96 25.05 21.06 25.05h83.5z" fill="#fff8e7"/><path d="m278.63 246.96h-83.5c-8.84 0-23.79-5.85-23.79-27.78s14.95-27.78 23.79-27.78h83.5c1.51 0 2.74 1.22 2.74 2.73s-1.23 2.73-2.74 2.73h-83.5c-1.46 0-6.6.28-11.11 3.87-4.79 3.8-7.21 10-7.21 18.45s2.42 14.65 7.21 18.45c4.52 3.59 9.65 3.87 11.11 3.87h83.5c1.51 0 2.74 1.22 2.74 2.73s-1.23 2.73-2.74 2.73z" fill="#fff8e7"/><path d="m171.34 219.19c0-21.93 14.95-27.78 23.79-27.78h-129.02c-8.83 0-23.79 5.85-23.79 27.78s14.95 27.78 23.79 27.78h129.02c-8.84 0-23.79-5.85-23.79-27.78z" fill="#fff8e7"/><path d="m76.65 219.19c0-21.93 14.95-27.78 23.79-27.78h-13.03c-8.83 0-23.78 5.85-23.78 27.78s14.95 27.78 23.78 27.78h13.03c-8.84 0-23.79-5.85-23.79-27.78z" fill="#fff8e7"/><path d="m160.56 219.19c0-21.93 14.95-27.78 23.79-27.78h-6.51c-8.83 0-23.78 5.85-23.78 27.78s14.95 27.78 23.78 27.78h6.51c-8.84 0-23.79-5.85-23.79-27.78z" fill="#fff8e7"/></g></g></g></svg>