<svg fill="none" height="366" viewBox="0 0 338 366" width="338" xmlns="http://www.w3.org/2000/svg" xmlns:xlink="http://www.w3.org/1999/xlink"><clipPath id="a"><path d="m73 111h191.1v254.7h-191.1z"/></clipPath><g clip-path="url(#a)"><path d="m73.81 160.42 5.77 200.84c.06 2.08 1.74 3.71 3.82 3.71h170.3c2.08 0 3.76-1.63 3.82-3.71l5.77-200.84z" fill="#fff8e7" stroke="#0c0d0d" stroke-linecap="round" stroke-linejoin="round" stroke-width="1.46"/><path d="m205.99 138.96h-74.88c-1.55 0-2.81-1.26-2.81-2.81v-16.02c0-5.03 4.09-9.13 9.13-9.13h62.25c5.03 0 9.13 4.09 9.13 9.13v16.03c0 1.55-1.26 2.81-2.81 2.81zm-72.08-5.62h69.27v-13.22c0-1.94-1.57-3.51-3.51-3.51h-62.25c-1.94 0-3.51 1.57-3.51 3.51z" fill="#0c0d0d"/><g fill="#fff8e7" stroke="#0c0d0d" stroke-linecap="round" stroke-linejoin="round" stroke-width="1.46"><path d="m93.66 351.38h20.97l-4.68-177.37h-22.14z"/><path d="m135.98 351.38h20.41v-177.37h-23.92z"/><path d="m180.72 351.38h20.42l4.1-177.37h-24.51v177.37z"/><path d="m222.47 351.38h20.97l5.85-177.37h-22.14z"/><path d="m73.73 160.33h189.64v-17.88c0-3.03-2.47-5.5-5.5-5.5h-178.64c-3.03 0-5.5 2.47-5.5 5.5z"/></g></g></svg>