<svg fill="none" height="366" viewBox="0 0 338 366" width="338" xmlns="http://www.w3.org/2000/svg" xmlns:xlink="http://www.w3.org/1999/xlink"><clipPath id="a"><path d="m0 0h338v366h-338z"/></clipPath><clipPath id="b"><path d="m41 77h256v289.4h-256z"/></clipPath><g clip-path="url(#a)"><g clip-path="url(#b)"><g fill="#fff8e7" stroke="#0c0d0d" stroke-linecap="round" stroke-linejoin="round" stroke-width="1.46"><path d="m285.05 365.67h-232.11c-6.18 0-11.21-5.03-11.21-11.21v-221.57h254.53v221.56c0 6.18-5.03 11.21-11.21 11.21z"/><path d="m169 343.08c-53.44 0-96.92-43.48-96.92-96.92s43.48-96.92 96.92-96.92 96.92 43.48 96.92 96.92-43.48 96.92-96.92 96.92z"/><path d="m169 325.97c-44.01 0-79.82-35.81-79.82-79.82s35.81-79.82 79.82-79.82 79.82 35.8 79.82 79.82-35.81 79.82-79.82 79.82z"/></g><path d="m169 325.97c-44.01 0-79.82-35.81-79.82-79.82v-1.07l.68-.83c10.31-12.71 19.26-18.76 28.16-19.05 11.53-.35 20.26 9.11 29.53 19.15 10.48 11.35 21.31 23.09 37.28 23.09 20.56 0 35.33-16.95 45.11-28.17 6.25-7.18 10.03-11.51 14.2-9.94 3.45 1.29 4.68 5.7 4.68 16.84 0 44.01-35.81 79.82-79.82 79.82z" fill="#0c0d0d"/><path d="m296.26 132.89h-254.53v-43.95c0-6.18 5.03-11.21 11.21-11.21h232.11c6.18 0 11.21 5.03 11.21 11.21z" fill="#fff8e7" stroke="#0c0d0d" stroke-linecap="round" stroke-linejoin="round" stroke-width="1.46"/><path d="m267.34 121.03c-8.59 0-15.58-6.99-15.58-15.58 0-8.5899 6.99-15.5799 15.58-15.5799s15.58 6.99 15.58 15.5799c0 8.59-6.99 15.58-15.58 15.58z" fill="#fff8e7" stroke="#0c0d0d" stroke-linecap="round" stroke-linejoin="round" stroke-width="1.46"/><path d="m222.81 121.03c-8.59 0-15.58-6.99-15.58-15.58 0-8.5899 6.99-15.5799 15.58-15.5799s15.58 6.99 15.58 15.5799c0 8.59-6.99 15.58-15.58 15.58z" fill="#fff8e7" stroke="#0c0d0d" stroke-linecap="round" stroke-linejoin="round" stroke-width="1.46"/><path d="m91.18 117.91h-29.09c-2.96 0-5.37-2.41-5.37-5.37v-14.4498c0-2.96 2.41-5.37 5.37-5.37h29.09c2.96 0 5.37 2.41 5.37 5.37v14.4498c0 2.96-2.41 5.37-5.37 5.37z" fill="#0c0d0d"/></g></g></svg>